<svg xmlns="http://www.w3.org/2000/svg" width="800" height="800" viewBox="0 0 800 800" fill="none">
<path d="M676.764 30.8876L400 308.57L123.236 31.7044C97.9274 6.38635 56.2904 6.38635 30.9816 31.7044C5.6728 57.0225 5.6728 98.6748 30.9816 123.993L307.745 400.858L30.9816 677.723C5.6728 703.041 5.6728 744.693 30.9816 770.011C56.2904 795.33 97.9274 795.33 123.236 770.011L400 493.146L676.764 770.011C702.072 795.33 743.71 795.33 769.018 770.011C794.327 744.693 794.327 703.041 769.018 677.723L492.254 400.858L769.018 123.993C794.327 98.6748 794.327 57.0225 769.018 31.7044C743.71 5.56964 702.889 5.56959 676.764 30.8876Z" fill="currentcolor"/>
</svg>